<svg xmlns="http://www.w3.org/2000/svg" aria-hidden="true" >
  <defs>
  <symbol id="icon-Logo-6-1" viewBox="0 0 57 32">
<path d="M20.267 3.733l3.738 3.538-6.938-0.004v17.166h18.133v-6.564l3.733 3.534v-17.671h-18.667zM35.036 17.455l-10.597-10.032h10.597v10.032zM31.746 21.923h-11.81v-11.545h0.835v10.764h10.975v0.782zM22.725 26.72l-0.436 0.898-0.436-0.898h-0.366l0.637 1.198v0.698h0.331v-0.698l0.635-1.198h-0.365zM23.273 28.615l0.154-0.441h0.734l0.155 0.441h0.344l-0.717-1.896h-0.296l-0.716 1.896h0.342zM23.794 27.122l0.275 0.786h-0.549l0.275-0.786zM25.531 27.863c-0.045 0.067-0.072 0.149-0.072 0.238 0 0.001 0 0.002 0 0.003v-0c0 0.16 0.056 0.29 0.168 0.389s0.263 0.148 0.451 0.148 0.349-0.051 0.484-0.152l0.107 0.126h0.367l-0.279-0.329c0.109-0.149 0.164-0.341 0.164-0.574h-0.275c0 0.128-0.026 0.243-0.079 0.348l-0.366-0.432 0.129-0.094c0.091-0.066 0.157-0.132 0.197-0.198 0.038-0.062 0.060-0.136 0.060-0.216 0-0.001 0-0.002 0-0.003v0c0-0.12-0.044-0.22-0.133-0.301s-0.201-0.122-0.339-0.122c-0.153 0-0.274 0.043-0.365 0.13s-0.135 0.203-0.135 0.352c0 0.061 0.014 0.124 0.043 0.189s0.081 0.144 0.155 0.237c-0.141 0.101-0.235 0.188-0.283 0.262zM26.386 28.282c-0.093 0.071-0.193 0.107-0.299 0.107-0.095 0-0.17-0.027-0.227-0.082s-0.085-0.126-0.085-0.214c0-0.102 0.052-0.192 0.156-0.271l0.040-0.029 0.414 0.488zM26.046 27.442c-0.089-0.11-0.134-0.202-0.134-0.275 0-0.063 0.018-0.116 0.055-0.158s0.085-0.063 0.147-0.063c0.057 0 0.105 0.018 0.142 0.053s0.056 0.077 0.056 0.126c0 0.075-0.027 0.136-0.081 0.184l-0.040 0.033-0.145 0.099zM29.132 28.472c0.13-0.114 0.205-0.272 0.224-0.474h-0.328c-0.017 0.135-0.059 0.232-0.124 0.29s-0.162 0.087-0.292 0.087c-0.142 0-0.249-0.054-0.323-0.161s-0.109-0.264-0.109-0.469v-0.168c0.002-0.202 0.041-0.355 0.117-0.46s0.188-0.158 0.331-0.158c0.123 0 0.217 0.030 0.28 0.091s0.104 0.158 0.12 0.294h0.328c-0.021-0.207-0.095-0.368-0.223-0.482s-0.296-0.171-0.505-0.171c-0.155 0-0.293 0.037-0.411 0.111s-0.209 0.179-0.272 0.315c-0.063 0.136-0.095 0.294-0.095 0.473v0.177c0.003 0.174 0.035 0.328 0.098 0.46s0.151 0.234 0.266 0.306c0.115 0.071 0.249 0.107 0.4 0.107 0.216 0 0.389-0.056 0.52-0.169zM31.068 28.206c0.064-0.141 0.096-0.304 0.096-0.49v-0.105c-0.001-0.185-0.034-0.347-0.099-0.486s-0.158-0.247-0.277-0.32c-0.119-0.075-0.256-0.112-0.41-0.112s-0.292 0.038-0.411 0.113c-0.119 0.075-0.211 0.183-0.277 0.324s-0.098 0.305-0.098 0.49v0.107c0.001 0.181 0.034 0.342 0.099 0.48s0.159 0.246 0.279 0.322c0.121 0.075 0.258 0.112 0.411 0.112 0.155 0 0.293-0.037 0.411-0.112s0.212-0.183 0.276-0.323zM30.716 27.135c0.080 0.112 0.12 0.273 0.12 0.483v0.099c0 0.214-0.040 0.376-0.119 0.487s-0.19 0.167-0.336 0.167c-0.144 0-0.257-0.057-0.339-0.171s-0.121-0.275-0.121-0.483v-0.109c0.002-0.204 0.043-0.362 0.122-0.473s0.192-0.168 0.335-0.168c0.146 0 0.258 0.056 0.337 0.168z"></path>
</symbol>
<symbol id="icon-Logo-7-1" viewBox="0 0 57 32">
<path  d="M26.727 3.165h-0.073c-0.112-0.007-0.224-0.010-0.336-0.012h-0.243c-0.212 0-0.428 0.005-0.642 0.016-0.007-0.001-0.016-0.001-0.024-0.001s-0.017 0-0.025 0.001l0.001-0c-2.059 0.12-3.971 0.635-5.699 1.47l0.090-0.039-0.231 0.111v11.809l0.54-0.183c0.474-0.163 0.978-0.309 1.5-0.445 1.29-0.345 2.775-0.553 4.305-0.574l0.013-0v1.551c-0.204 0.001-0.403 0.007-0.6 0.018l0.032-0.001h-0.045c-1.212 0.068-2.348 0.25-3.442 0.537l0.12-0.027c-1.503 0.382-2.82 0.91-4.044 1.586l0.087-0.044v-15.145c1.195-0.711 2.578-1.289 4.042-1.665l0.11-0.024c1.173-0.315 2.52-0.499 3.909-0.504h0.231c0.273 0.007 0.538 0.019 0.788 0.038 0.719 0.052 1.384 0.162 2.028 0.328l-0.078-0.017v1.527c-0.544-0.133-1.19-0.235-1.85-0.282l-0.039-0.002-0.039-0.003c-0.132-0.011-0.263-0.022-0.386-0.022zM29.415 4.726c0.339 0.026 0.689 0.038 1.044 0.038 1.464-0.006 2.881-0.198 4.231-0.554l-0.117 0.026c1.503-0.384 2.819-0.912 4.043-1.588l-0.087 0.044v14.875c-1.196 0.71-2.578 1.289-4.043 1.665l-0.11 0.024c-1.173 0.314-2.52 0.497-3.909 0.503h-0.004c-0.029 0-0.062 0-0.096 0-1.020 0-2.010-0.128-2.955-0.368l0.083 0.018v-14.971c0.229 0.053 0.465 0.102 0.706 0.142 0.394 0.066 0.81 0.115 1.214 0.145zM36.985 4.841l-0.54 0.182c-0.326 0.12-0.827 0.273-1.334 0.411l-0.166 0.038c-1.344 0.36-2.888 0.569-4.48 0.575h-0.004c-0.352 0-0.676-0.010-0.989-0.030l-0.43-0.028v12.148l0.37 0.033c0.343 0.030 0.696 0.045 1.052 0.045 1.257-0.006 2.473-0.172 3.631-0.48l-0.1 0.023c1.058-0.269 1.977-0.608 2.847-1.030l-0.088 0.039 0.231-0.111v-11.813z"></path>
<path  d="M19.060 24.113c-0.076-0.079-0.167-0.141-0.269-0.184l-0.005-0.002c-0.088-0.037-0.19-0.058-0.297-0.058-0.010 0-0.020 0-0.030 0.001l0.001-0c-0.004-0-0.008-0-0.012-0-0.121 0-0.236 0.024-0.341 0.067l0.006-0.002c-0.105 0.043-0.195 0.103-0.27 0.178v0c-0.074 0.075-0.133 0.166-0.172 0.266l-0.002 0.005c-0.039 0.096-0.062 0.208-0.062 0.325 0 0.004 0 0.007 0 0.011v-0.001 2.023c-0.005 0.143 0.022 0.284 0.080 0.415 0.050 0.107 0.118 0.197 0.201 0.27l0.001 0.001c0.081 0.068 0.176 0.117 0.278 0.144 0.090 0.026 0.195 0.042 0.302 0.042h0c0.002 0 0.005 0 0.007 0 0.116 0 0.226-0.026 0.324-0.073l-0.005 0.002c0.105-0.047 0.195-0.11 0.27-0.187l0-0c0.073-0.076 0.133-0.166 0.175-0.265l0.002-0.006c0.041-0.094 0.065-0.204 0.065-0.319 0-0.001 0-0.003 0-0.004v0-0.226h-0.529v0.18c0 0.004 0 0.008 0 0.012 0 0.061-0.011 0.118-0.032 0.171l0.001-0.003c-0.018 0.045-0.044 0.083-0.077 0.114l-0 0c-0.031 0.025-0.068 0.045-0.108 0.058l-0.002 0.001c-0.033 0.011-0.071 0.018-0.11 0.019h-0c-0.009 0.001-0.020 0.002-0.031 0.002-0.039 0-0.076-0.008-0.109-0.023l0.002 0.001c-0.045-0.020-0.081-0.050-0.109-0.087l-0.001-0.001c-0.044-0.071-0.071-0.158-0.071-0.25 0-0.007 0-0.015 0-0.022l-0 0.001v-1.887c-0-0.006-0-0.013-0-0.020 0-0.103 0.024-0.2 0.067-0.286l-0.002 0.004c0.028-0.043 0.066-0.076 0.11-0.098l0.002-0.001c0.034-0.016 0.073-0.026 0.114-0.026 0.011 0 0.023 0.001 0.034 0.002l-0.001-0c0.003-0 0.007-0 0.010-0 0.092 0 0.174 0.045 0.226 0.113l0.001 0.001c0.055 0.071 0.088 0.162 0.088 0.26 0 0.004-0 0.008-0 0.011v-0.001 0.175h0.524v-0.206c0-0.002 0-0.005 0-0.008 0-0.124-0.024-0.243-0.067-0.352l0.002 0.006c-0.041-0.111-0.101-0.205-0.177-0.285l0 0zM22.202 24.090c-0.161-0.137-0.372-0.221-0.601-0.222h-0c-0.113 0-0.222 0.021-0.322 0.059l0.006-0.002c-0.108 0.039-0.201 0.095-0.28 0.166l0.001-0.001c-0.086 0.078-0.155 0.172-0.203 0.278l-0.002 0.005c-0.049 0.11-0.077 0.239-0.077 0.374 0 0.006 0 0.013 0 0.019v-0.001 1.941c-0.004 0.137 0.023 0.272 0.077 0.397 0.048 0.104 0.118 0.197 0.205 0.271 0.081 0.075 0.176 0.133 0.279 0.171 0.101 0.037 0.208 0.056 0.316 0.057 0.113-0 0.222-0.021 0.322-0.059l-0.006 0.002c0.11-0.041 0.205-0.099 0.287-0.172l-0.001 0.001c0.083-0.075 0.15-0.165 0.198-0.266l0.002-0.005c0.049-0.11 0.077-0.238 0.077-0.372 0-0.009-0-0.018-0-0.026l0 0.001v-1.941c0-0.005 0-0.012 0-0.018 0-0.135-0.028-0.263-0.079-0.38l0.002 0.006c-0.049-0.111-0.117-0.205-0.199-0.283l-0-0zM21.955 26.706c0.001 0.009 0.001 0.019 0.001 0.030 0 0.098-0.041 0.187-0.106 0.251l-0 0c-0.067 0.056-0.154 0.091-0.249 0.091v0c-0.095-0-0.182-0.034-0.25-0.091l0.001 0c-0.066-0.063-0.107-0.152-0.107-0.251 0-0.011 0-0.021 0.001-0.031l-0 0.001v-1.941c-0.001-0.009-0.001-0.020-0.001-0.030 0-0.098 0.041-0.187 0.106-0.251l0-0c0.067-0.056 0.154-0.091 0.249-0.091v0c0.095 0 0.182 0.034 0.25 0.091l-0.001-0c0.066 0.063 0.107 0.152 0.107 0.251 0 0.011-0 0.021-0.001 0.032l0-0.001v1.941zM26.329 27.573v-3.674h-0.509l-0.668 1.945h-0.009l-0.673-1.945h-0.503v3.674h0.525v-2.235h0.009l0.514 1.58h0.262l0.518-1.58h0.009v2.235h0.525zM29.311 24.157c-0.079-0.089-0.179-0.157-0.292-0.199l-0.005-0.002c-0.108-0.036-0.232-0.057-0.36-0.057-0.007 0-0.014 0-0.021 0h-0.779v3.674h0.523v-1.435h0.27c0.163 0.007 0.326-0.027 0.472-0.1 0.12-0.068 0.217-0.163 0.285-0.277l0.002-0.003c0.058-0.092 0.1-0.2 0.119-0.315l0.001-0.005c0.018-0.116 0.029-0.249 0.029-0.385 0-0.012-0-0.023-0-0.034l0 0.002c0.001-0.018 0.001-0.039 0.001-0.061 0-0.165-0.019-0.325-0.055-0.478l0.003 0.014c-0.037-0.132-0.104-0.246-0.193-0.338l0 0zM29.041 25.277c-0.002 0.070-0.020 0.136-0.050 0.194l0.001-0.003c-0.030 0.056-0.077 0.101-0.133 0.128l-0.002 0.001c-0.064 0.030-0.14 0.047-0.219 0.047-0.010 0-0.019-0-0.029-0.001l0.001 0h-0.239v-1.249h0.27c0.007-0 0.016-0.001 0.025-0.001 0.077 0 0.149 0.017 0.215 0.048l-0.003-0.001c0.054 0.032 0.096 0.078 0.122 0.134l0.001 0.002c0.029 0.065 0.044 0.134 0.046 0.205v0.244c0 0.085 0.005 0.174 0 0.252h-0.005zM31.791 23.899h-0.429l-0.809 3.674h0.523l0.154-0.789h0.714l0.154 0.789h0.524l-0.83-3.674zM31.308 26.283l0.258-1.332h0.009l0.256 1.332h-0.524zM35.173 26.112h-0.009l-0.791-2.213h-0.503v3.674h0.523v-2.209h0.011l0.8 2.209h0.492v-3.674h-0.523v2.213zM38.372 23.899l-0.421 1.461h-0.011l-0.421-1.461h-0.554l0.719 2.121v1.553h0.524v-1.553l0.719-2.121h-0.554zM17.6 28.61h0.252v0.708h0.171v-0.708h0.251v-0.145h-0.675v0.145zM19.721 28.465l-0.331 0.853h0.182l0.070-0.194h0.34l0.073 0.194h0.186l-0.339-0.853h-0.182zM19.694 28.981l0.116-0.316 0.116 0.316h-0.232zM21.818 29.004h0.197v0.11c-0.055 0.044-0.125 0.071-0.202 0.072h-0c-0.004 0-0.008 0-0.012 0-0.068 0-0.129-0.032-0.169-0.081l-0-0c-0.040-0.057-0.064-0.128-0.064-0.204 0-0.007 0-0.013 0.001-0.020l-0 0.001c0-0.19 0.082-0.285 0.246-0.285 0.005-0.001 0.012-0.001 0.018-0.001 0.039 0 0.075 0.012 0.104 0.033l-0.001-0c0.035 0.025 0.060 0.061 0.071 0.102l0 0.001 0.169-0.033c-0.036-0.167-0.156-0.251-0.362-0.251-0.003-0-0.007-0-0.011-0-0.11 0-0.211 0.042-0.287 0.11l0-0c-0.077 0.076-0.124 0.181-0.124 0.297 0 0.011 0 0.022 0.001 0.033l-0-0.001c-0 0.006-0 0.013-0 0.020 0 0.115 0.041 0.22 0.11 0.301l-0.001-0.001c0.075 0.078 0.18 0.126 0.296 0.126 0.010 0 0.019-0 0.029-0.001l-0.001 0c0.004 0 0.009 0 0.014 0 0.134 0 0.256-0.052 0.348-0.136l-0 0v-0.336h-0.37v0.144zM23.959 28.465h-0.173v0.853h0.598v-0.145h-0.425v-0.708zM25.769 28.465h-0.173v0.853h0.173v-0.853zM27.539 29.035l-0.349-0.57h-0.167v0.853h0.161v-0.557l0.343 0.557h0.171v-0.853h-0.158v0.57zM29.14 28.943h0.425v-0.145h-0.425v-0.187h0.457v-0.145h-0.63v0.853h0.648v-0.145h-0.475v-0.231zM33.020 28.802h-0.336v-0.336h-0.171v0.853h0.171v-0.373h0.336v0.373h0.171v-0.853h-0.171v0.336zM34.629 28.943h0.426v-0.145h-0.426v-0.187h0.459v-0.145h-0.63v0.853h0.646v-0.145h-0.475v-0.231zM36.812 28.943c0.148-0.023 0.224-0.102 0.224-0.237 0.001-0.007 0.001-0.016 0.001-0.024 0-0.068-0.033-0.128-0.084-0.165l-0.001-0c-0.063-0.032-0.138-0.051-0.216-0.051-0.012 0-0.023 0-0.035 0.001l0.002-0h-0.362v0.853h0.171v-0.357h0.034c0.004-0 0.009-0 0.014-0 0.033 0 0.065 0.007 0.094 0.020l-0.001-0.001c0.025 0.016 0.046 0.037 0.060 0.062l0 0.001 0.186 0.271h0.205l-0.104-0.167c-0.047-0.083-0.111-0.152-0.187-0.203l-0.002-0.001zM36.64 28.825h-0.127v-0.214h0.135c0.011-0.001 0.023-0.001 0.036-0.001 0.049 0 0.097 0.008 0.141 0.023l-0.003-0.001c0.023 0.021 0.038 0.050 0.038 0.084 0 0.037-0.018 0.070-0.045 0.090l-0 0c-0.043 0.014-0.092 0.021-0.143 0.021-0.011 0-0.022-0-0.033-0.001l0.001 0zM38.458 28.943h0.425v-0.145h-0.425v-0.187h0.459v-0.145h-0.631v0.853h0.648v-0.145h-0.475v-0.231z"></path>
</symbol>
<symbol id="icon-Logo-8-1" viewBox="0 0 57 32">
<path d="M19.417 26.187c0.009 0 0.017 0.002 0.025 0.005l-0-0c0.008 0.003 0.015 0.007 0.021 0.013l-0-0 0.116 0.111c-0.090 0.090-0.202 0.162-0.327 0.211-0.129 0.048-0.278 0.076-0.434 0.076-0.011 0-0.021-0-0.031-0l0.002 0c-0.007 0-0.015 0-0.024 0-0.148 0-0.29-0.026-0.421-0.074l0.009 0.003c-0.125-0.045-0.237-0.113-0.329-0.2-0.094-0.089-0.166-0.194-0.212-0.308s-0.074-0.245-0.074-0.384c0-0.004 0-0.008 0-0.013v0.001c-0-0.004-0-0.009-0-0.013 0-0.139 0.029-0.271 0.082-0.39l-0.002 0.006c0.051-0.115 0.127-0.22 0.225-0.308 0.099-0.087 0.218-0.155 0.349-0.201 0.13-0.045 0.279-0.071 0.435-0.071 0.005 0 0.010 0 0.016 0h-0.001c0.008-0 0.017-0 0.027-0 0.14 0 0.274 0.024 0.399 0.067l-0.009-0.003c0.115 0.043 0.221 0.104 0.313 0.178l-0.097 0.119c-0.007 0.009-0.015 0.016-0.024 0.021l-0 0c-0.010 0.006-0.021 0.009-0.034 0.009-0.002 0-0.004-0-0.006-0l0 0c-0.016-0.001-0.030-0.006-0.043-0.013l0 0-0.052-0.032-0.073-0.040c-0.026-0.013-0.058-0.026-0.092-0.037l-0.006-0.002c-0.036-0.012-0.081-0.023-0.126-0.031l-0.006-0.001c-0.048-0.008-0.103-0.013-0.16-0.013-0.005 0-0.009 0-0.014 0h0.001c-0.003-0-0.008-0-0.012-0-0.112 0-0.219 0.019-0.318 0.055l0.007-0.002c-0.096 0.034-0.182 0.084-0.253 0.149-0.073 0.069-0.128 0.15-0.164 0.238-0.038 0.090-0.060 0.194-0.060 0.303 0 0.004 0 0.007 0 0.011v-0.001c-0 0.004-0 0.008-0 0.012 0 0.11 0.022 0.216 0.062 0.312l-0.002-0.005c0.035 0.087 0.090 0.167 0.161 0.236 0.067 0.064 0.149 0.114 0.241 0.147 0.095 0.034 0.197 0.051 0.3 0.050 0.005 0 0.011 0 0.017 0 0.056 0 0.112-0.004 0.167-0.011l-0.006 0.001c0.1-0.011 0.191-0.041 0.273-0.087l-0.003 0.002c0.044-0.025 0.081-0.051 0.116-0.080l-0.002 0.001c0.015-0.012 0.034-0.020 0.055-0.020h0zM22.776 25.629c0 0.003 0 0.008 0 0.012 0 0.138-0.029 0.269-0.081 0.388l0.002-0.006c-0.047 0.114-0.122 0.218-0.219 0.305s-0.214 0.155-0.344 0.2c-0.132 0.045-0.284 0.071-0.442 0.071s-0.31-0.026-0.452-0.074l0.010 0.003c-0.129-0.046-0.245-0.114-0.342-0.201-0.097-0.089-0.172-0.194-0.221-0.308-0.105-0.255-0.105-0.533 0-0.787 0.050-0.115 0.125-0.22 0.221-0.31 0.097-0.084 0.214-0.15 0.342-0.193 0.132-0.046 0.284-0.072 0.442-0.072s0.31 0.026 0.452 0.075l-0.010-0.003c0.129 0.046 0.246 0.114 0.343 0.201 0.096 0.088 0.17 0.191 0.22 0.304 0.054 0.127 0.080 0.261 0.078 0.395zM22.47 25.629c0-0.005 0-0.011 0-0.017 0-0.108-0.020-0.21-0.057-0.305l0.002 0.006c-0.033-0.087-0.086-0.168-0.156-0.236-0.068-0.065-0.152-0.116-0.246-0.149-0.096-0.033-0.206-0.052-0.321-0.052s-0.225 0.019-0.329 0.054l0.007-0.002c-0.094 0.033-0.178 0.084-0.246 0.149-0.071 0.068-0.125 0.149-0.157 0.236-0.035 0.094-0.056 0.203-0.056 0.316s0.020 0.222 0.058 0.322l-0.002-0.006c0.033 0.087 0.086 0.168 0.157 0.236 0.068 0.065 0.152 0.115 0.246 0.148 0.096 0.032 0.207 0.050 0.321 0.050s0.225-0.018 0.329-0.053l-0.007 0.002c0.093-0.033 0.177-0.083 0.246-0.148 0.070-0.069 0.123-0.149 0.156-0.236 0.035-0.088 0.055-0.191 0.055-0.298 0-0.006-0-0.013-0-0.019l0 0.001zM25.067 25.96l0.030 0.071c0.012-0.025 0.022-0.048 0.033-0.071 0.013-0.027 0.026-0.050 0.039-0.072l-0.002 0.003 0.743-1.174c0.015-0.020 0.028-0.033 0.042-0.037s0.033-0.007 0.051-0.007c0.004 0 0.007 0 0.011 0l-0-0h0.22v1.909h-0.26v-1.463c-0.001-0.010-0.001-0.021-0.001-0.033s0-0.023 0.001-0.034l-0 0.002-0.747 1.19c-0.010 0.018-0.025 0.033-0.043 0.043l-0.001 0c-0.018 0.010-0.040 0.016-0.063 0.016-0 0-0.001 0-0.001 0h-0.042c-0.001 0-0.001 0-0.002 0-0.023 0-0.044-0.006-0.063-0.016l0.001 0c-0.019-0.010-0.033-0.025-0.043-0.043l-0-0.001-0.769-1.198v1.532h-0.252v-1.905h0.22c0.003-0 0.007-0 0.010-0 0.018 0 0.035 0.002 0.052 0.007l-0.001-0c0.018 0.007 0.032 0.020 0.041 0.036l0 0 0.759 1.175c0.014 0.020 0.026 0.042 0.037 0.066l0.001 0.003zM27.864 25.865v0.715h-0.291v-1.906h0.649c0.007-0 0.015-0 0.024-0 0.12 0 0.237 0.015 0.348 0.044l-0.010-0.002c0.094 0.023 0.181 0.064 0.256 0.119 0.065 0.052 0.114 0.116 0.145 0.187 0.034 0.078 0.051 0.161 0.049 0.244 0 0.002 0 0.005 0 0.007 0 0.086-0.020 0.167-0.055 0.24l0.001-0.003c-0.035 0.073-0.089 0.138-0.157 0.191-0.073 0.056-0.159 0.099-0.252 0.125l-0.005 0.001c-0.098 0.028-0.211 0.044-0.327 0.044-0.008 0-0.016-0-0.025-0l0.001 0-0.352-0.005zM27.864 25.66h0.352c0.003 0 0.006 0 0.010 0 0.077 0 0.151-0.011 0.221-0.030l-0.006 0.001c0.062-0.018 0.117-0.046 0.164-0.083l-0.001 0.001c0.042-0.033 0.076-0.076 0.098-0.124l0.001-0.002c0.022-0.046 0.035-0.099 0.035-0.156 0-0.002 0-0.003-0-0.005v0c0-0.006 0.001-0.013 0.001-0.020 0-0.049-0.011-0.096-0.031-0.137l0.001 0.002c-0.025-0.052-0.059-0.095-0.101-0.13l-0.001-0.001c-0.111-0.075-0.251-0.112-0.391-0.102h-0.352v0.786zM31.772 26.583h-0.23c-0.001 0-0.003 0-0.004 0-0.022 0-0.043-0.007-0.060-0.018l0 0c-0.016-0.011-0.029-0.026-0.038-0.044l-0-0.001-0.198-0.461h-0.993l-0.205 0.461c-0.008 0.018-0.021 0.032-0.036 0.043l-0 0c-0.017 0.012-0.039 0.019-0.062 0.019-0.001 0-0.003-0-0.004-0h-0.23l0.872-1.909h0.302l0.884 1.909zM30.333 25.874h0.82l-0.346-0.777c-0.023-0.049-0.045-0.109-0.063-0.171l-0.002-0.009-0.034 0.1c-0.011 0.034-0.022 0.060-0.034 0.086l0.002-0.006-0.343 0.776zM33.029 24.682c0.017 0.008 0.032 0.020 0.043 0.034l0 0 1.272 1.439v-1.482h0.26v1.909h-0.145c-0.001 0-0.003 0-0.004 0-0.020 0-0.039-0.004-0.057-0.012l0.001 0c-0.018-0.009-0.034-0.021-0.046-0.035l-0-0-1.271-1.438c0.001 0.010 0.001 0.021 0.001 0.033s-0 0.023-0.001 0.034l0-0.002v1.419h-0.26v-1.909h0.154c0.001-0 0.002-0 0.004-0 0.017 0 0.034 0.003 0.050 0.009l-0.001-0zM36.748 25.823v0.758h-0.291v-0.758l-0.804-1.15h0.26c0.002-0 0.004-0 0.006-0 0.021 0 0.041 0.006 0.057 0.017l-0-0c0.015 0.012 0.029 0.026 0.039 0.042l0 0.001 0.503 0.742c0.020 0.032 0.038 0.061 0.052 0.088s0.026 0.054 0.036 0.081l0.038-0.082c0.016-0.034 0.032-0.062 0.051-0.089l-0.002 0.002 0.496-0.747c0.011-0.015 0.023-0.029 0.037-0.040l0-0c0.016-0.012 0.036-0.019 0.058-0.019 0.002 0 0.003 0 0.005 0h0.263l-0.806 1.155zM24.923 21.47c0.127 0.014 0.255 0.025 0.384 0.035 1.962-0.763 3.622-2.011 4.772-3.588s1.74-3.415 1.695-5.282l-2.162-1.879c0.44 1.988 0.234 4.043-0.594 5.935s-2.245 3.547-4.094 4.779z"></path>
<path d="M24.151 21.383l0.058 0.010c1.975-1.228 3.482-2.942 4.323-4.921s0.981-4.133 0.4-6.181l-3.080-2.676c1.246 2.2 1.747 4.661 1.446 7.098s-1.393 4.75-3.147 6.67zM34.596 14.841c-0.523 2.052-1.794 3.902-3.624 5.276-0.534 0.404-1.111 0.763-1.722 1.074 1.49-0.38 2.859-1.053 4.003-1.966s2.030-2.042 2.592-3.3l-1.249-1.084z"></path>
<path d="M34.106 14.539l-1.778-1.545c-0.034 1.762-0.61 3.483-1.669 4.986s-2.562 2.731-4.352 3.559h0.009c0.421-0 0.836-0.023 1.245-0.066l-0.051 0.004c1.673-0.593 3.151-1.537 4.303-2.748s1.94-2.65 2.295-4.189zM24.409 6.486l-2.122-1.846c-1.897 0.637-3.528 1.756-4.68 3.212s-1.772 3.179-1.778 4.946c0.007 1.952 0.763 3.846 2.149 5.383s3.322 2.628 5.501 3.101c1.946-2.060 3.085-4.605 3.252-7.266s-0.647-5.299-2.323-7.53zM39.008 14.255c-0.008-2.316-1.070-4.535-2.955-6.173s-4.439-2.561-7.105-2.567c-1.232-0.001-2.453 0.196-3.602 0.582l12.99 11.286c0.445-0.998 0.673-2.058 0.672-3.128z"></path>
</symbol>
   <symbol id="icon-Logo-9-1" viewBox="0 0 57 32">
<path d="M12.878 11.255h-0.002c-1.279 0-2.316 0.921-2.316 2.058v0.001c0 1.137 1.037 2.058 2.316 2.058h0.002c1.279 0 2.316-0.921 2.316-2.058v-0.001c0-1.137-1.037-2.058-2.316-2.058zM29.971 10.597c-0.004-1.579-0.711-3.092-1.967-4.208s-2.958-1.745-4.735-1.749c-1.777 0.003-3.48 0.631-4.737 1.748s-1.964 2.63-1.968 4.209v8.706s13.405-1.327 13.406-8.704v-0.001zM5.867 22.16c0.003 1.098 0.496 2.151 1.369 2.928s2.058 1.215 3.294 1.218c1.236-0.003 2.42-0.441 3.294-1.218s1.366-1.829 1.37-2.927v-6.057s-9.327 0.924-9.327 6.056zM10.53 23.245c-0.242 0-0.478-0.064-0.678-0.183s-0.357-0.289-0.45-0.487c-0.092-0.198-0.117-0.417-0.069-0.627s0.163-0.404 0.334-0.556c0.171-0.152 0.388-0.255 0.625-0.297s0.482-0.020 0.706 0.062c0.223 0.082 0.414 0.221 0.548 0.4s0.206 0.388 0.206 0.603c0 0.001 0 0.002 0 0.002 0 0.15-0.034 0.293-0.094 0.42l0.003-0.006c-0.061 0.132-0.151 0.252-0.264 0.353s-0.248 0.182-0.397 0.236c-0.139 0.053-0.299 0.083-0.467 0.083-0.001 0-0.001 0-0.002 0h0v-0.004zM19.956 22.647h-0.9v0.93h-0.469v-2.275h1.481v0.38h-1.012v0.588h0.9v0.378zM22.209 22.491c0 0.224-0.040 0.42-0.119 0.589s-0.193 0.299-0.341 0.391c-0.147 0.092-0.316 0.137-0.506 0.137-0.189 0-0.357-0.045-0.505-0.136s-0.262-0.22-0.344-0.387c-0.081-0.169-0.122-0.363-0.123-0.581v-0.112c0-0.224 0.040-0.421 0.12-0.591 0.081-0.171 0.195-0.302 0.342-0.392 0.148-0.092 0.317-0.137 0.506-0.137s0.358 0.046 0.505 0.137c0.148 0.091 0.262 0.221 0.342 0.392 0.081 0.17 0.122 0.366 0.122 0.589v0.102zM21.734 22.388c0-0.238-0.043-0.42-0.128-0.544s-0.207-0.186-0.366-0.186c-0.157 0-0.279 0.061-0.364 0.184-0.085 0.122-0.129 0.301-0.13 0.538v0.111c0 0.232 0.043 0.412 0.128 0.541s0.208 0.192 0.369 0.192c0.157 0 0.278-0.061 0.363-0.184 0.084-0.124 0.127-0.304 0.128-0.541v-0.111zM23.73 22.98c0-0.089-0.031-0.156-0.094-0.203-0.063-0.048-0.175-0.098-0.337-0.15-0.163-0.053-0.291-0.105-0.386-0.156-0.258-0.14-0.387-0.328-0.387-0.564 0-0.123 0.034-0.232 0.103-0.328 0.070-0.097 0.169-0.172 0.298-0.227 0.13-0.054 0.276-0.081 0.438-0.081 0.163 0 0.307 0.030 0.434 0.089 0.127 0.058 0.226 0.141 0.295 0.248s0.106 0.229 0.106 0.366h-0.469c0-0.104-0.033-0.185-0.098-0.242s-0.158-0.087-0.277-0.087c-0.115 0-0.204 0.024-0.267 0.073-0.064 0.048-0.095 0.111-0.095 0.191 0 0.074 0.037 0.136 0.111 0.186 0.075 0.050 0.185 0.097 0.33 0.141 0.267 0.080 0.461 0.18 0.583 0.298s0.183 0.267 0.183 0.444c0 0.197-0.075 0.352-0.223 0.464-0.149 0.111-0.349 0.167-0.602 0.167-0.175 0-0.334-0.032-0.478-0.095-0.144-0.065-0.254-0.153-0.33-0.264s-0.113-0.241-0.113-0.388h0.47c0 0.251 0.15 0.377 0.45 0.377 0.111 0 0.198-0.022 0.261-0.067 0.063-0.046 0.094-0.109 0.094-0.191zM26.231 21.682h-0.697v1.895h-0.469v-1.895h-0.687v-0.38h1.853v0.38zM27.869 22.591h-0.9v0.609h1.056v0.377h-1.525v-2.275h1.522v0.38h-1.053v0.542h0.9v0.367zM29.142 22.744h-0.373v0.833h-0.469v-2.275h0.845c0.269 0 0.476 0.060 0.622 0.18s0.219 0.289 0.219 0.508c0 0.155-0.034 0.285-0.102 0.389-0.067 0.103-0.168 0.185-0.305 0.247l0.492 0.93v0.022h-0.503l-0.427-0.833zM28.769 22.365h0.378c0.118 0 0.209-0.030 0.273-0.089 0.065-0.060 0.097-0.143 0.097-0.248 0-0.107-0.031-0.192-0.092-0.253-0.060-0.061-0.154-0.092-0.28-0.092h-0.377v0.683zM31.609 22.775v0.802h-0.469v-2.275h0.887c0.171 0 0.321 0.031 0.45 0.094s0.23 0.152 0.3 0.267c0.070 0.115 0.105 0.245 0.105 0.392 0 0.223-0.077 0.399-0.23 0.528-0.152 0.128-0.363 0.192-0.633 0.192h-0.411zM31.609 22.396h0.419c0.124 0 0.218-0.029 0.283-0.088 0.066-0.058 0.098-0.142 0.098-0.25 0-0.111-0.033-0.202-0.098-0.27s-0.156-0.104-0.272-0.106h-0.43v0.714zM34.575 22.591h-0.9v0.609h1.056v0.377h-1.525v-2.275h1.522v0.38h-1.053v0.542h0.9v0.367zM36.75 21.682h-0.697v1.895h-0.469v-1.895h-0.688v-0.38h1.853v0.38zM38.387 22.591h-0.9v0.609h1.056v0.377h-1.525v-2.275h1.522v0.38h-1.053v0.542h0.9v0.367zM39.661 22.744h-0.373v0.833h-0.469v-2.275h0.845c0.269 0 0.476 0.060 0.622 0.18s0.219 0.289 0.219 0.508c0 0.155-0.034 0.285-0.102 0.389-0.067 0.103-0.168 0.185-0.305 0.247l0.492 0.93v0.022h-0.503l-0.427-0.833zM39.287 22.365h0.378c0.118 0 0.209-0.030 0.273-0.089 0.065-0.060 0.097-0.143 0.097-0.248 0-0.107-0.031-0.192-0.092-0.253-0.060-0.061-0.154-0.092-0.28-0.092h-0.377v0.683zM42.042 22.98c0-0.089-0.031-0.156-0.094-0.203-0.063-0.048-0.175-0.098-0.337-0.15-0.163-0.053-0.291-0.105-0.386-0.156-0.258-0.14-0.388-0.328-0.388-0.564 0-0.123 0.034-0.232 0.103-0.328 0.070-0.097 0.169-0.172 0.298-0.227 0.13-0.054 0.276-0.081 0.438-0.081 0.163 0 0.307 0.030 0.434 0.089 0.127 0.058 0.226 0.141 0.295 0.248 0.071 0.107 0.106 0.229 0.106 0.366h-0.469c0-0.104-0.033-0.185-0.098-0.242s-0.158-0.087-0.277-0.087c-0.115 0-0.204 0.024-0.267 0.073-0.064 0.048-0.095 0.111-0.095 0.191 0 0.074 0.037 0.136 0.111 0.186 0.075 0.050 0.185 0.097 0.33 0.141 0.267 0.080 0.461 0.18 0.583 0.298s0.183 0.267 0.183 0.444c0 0.197-0.074 0.352-0.223 0.464-0.149 0.111-0.349 0.167-0.602 0.167-0.175 0-0.334-0.032-0.478-0.095-0.144-0.065-0.254-0.153-0.33-0.264-0.075-0.111-0.112-0.241-0.112-0.388h0.47c0 0.251 0.15 0.377 0.45 0.377 0.111 0 0.198-0.022 0.261-0.067 0.063-0.046 0.094-0.109 0.094-0.191z"></path>
</symbol> 
<symbol id="icon-Logo-10-1" viewBox="0 0 57 32">
<path d="M14.27 23.859c0.13 0.147 0.199 0.332 0.196 0.521 0.001 0.012 0.001 0.026 0.001 0.040 0 0.116-0.026 0.227-0.073 0.325l0.002-0.005c-0.052 0.114-0.132 0.216-0.233 0.297-0.252 0.175-0.565 0.26-0.881 0.24h-1.549v-3.302h1.517c0.299-0.018 0.596 0.059 0.84 0.219 0.098 0.075 0.176 0.17 0.227 0.277s0.074 0.224 0.068 0.341c0.009 0.182-0.054 0.361-0.176 0.505-0.118 0.131-0.28 0.222-0.462 0.258 0.205 0.034 0.391 0.134 0.523 0.282zM12.454 23.36h0.648c0.147 0.010 0.294-0.029 0.412-0.11 0.047-0.039 0.085-0.088 0.11-0.144l0.001-0.003c0.019-0.042 0.030-0.092 0.030-0.144 0-0.011-0.001-0.022-0.002-0.033l0 0.001c0.001-0.008 0.001-0.018 0.001-0.028 0-0.053-0.011-0.104-0.031-0.15l0.001 0.002c-0.026-0.058-0.062-0.108-0.108-0.147l-0.001-0c-0.122-0.083-0.273-0.123-0.425-0.111h-0.638v0.866zM13.578 24.627c0.051-0.040 0.091-0.091 0.118-0.149l0.001-0.003c0.022-0.046 0.035-0.101 0.035-0.158 0-0.009-0-0.018-0.001-0.027l0 0.001c0-0.007 0.001-0.015 0.001-0.023 0-0.059-0.013-0.115-0.037-0.165l0.001 0.002c-0.029-0.061-0.070-0.112-0.121-0.152l-0.001-0.001c-0.127-0.086-0.283-0.128-0.44-0.119h-0.68v0.908h0.689c0.155 0.008 0.309-0.032 0.435-0.114zM17.371 25.278l-0.844-1.291h-0.317v1.291h-0.726v-3.302h1.374c0.346-0.022 0.689 0.078 0.957 0.281 0.192 0.179 0.308 0.415 0.327 0.666s-0.061 0.499-0.224 0.7c-0.17 0.178-0.401 0.296-0.655 0.336l0.898 1.32h-0.789zM16.21 23.538h0.594c0.412 0 0.618-0.167 0.618-0.5 0.001-0.008 0.001-0.018 0.001-0.028 0-0.062-0.012-0.122-0.035-0.175l0.001 0.003c-0.028-0.067-0.068-0.124-0.118-0.171l-0-0c-0.13-0.099-0.298-0.147-0.467-0.134h-0.601l0.007 1.005zM21.339 24.614h-1.446l-0.255 0.665h-0.761l1.328-3.265h0.823l1.323 3.265h-0.761l-0.25-0.665zM21.145 24.114l-0.529-1.394-0.529 1.394h1.057zM26.305 25.278h-0.721l-1.616-2.245v2.245h-0.719v-3.302h0.719l1.616 2.258v-2.258h0.721v3.302zM30.417 24.488c-0.149 0.249-0.376 0.452-0.652 0.582-0.314 0.145-0.662 0.217-1.013 0.208h-1.283v-3.302h1.283c0.351-0.008 0.698 0.061 1.013 0.203 0.276 0.127 0.503 0.328 0.652 0.576 0.148 0.269 0.226 0.565 0.226 0.866s-0.077 0.598-0.226 0.866zM29.593 24.409c0.206-0.219 0.319-0.499 0.319-0.788s-0.113-0.569-0.319-0.788c-0.249-0.199-0.573-0.3-0.902-0.281h-0.5v2.137h0.5c0.329 0.019 0.654-0.082 0.902-0.281zM21.79 3.609s9.301 3.215 9.103 7.867v7.869s-9.294-3.217-9.1-7.869l-0.004-7.867zM39.179 17.503c1.757-1.107 3.788-1.792 5.909-1.994v-2.463c-2.444 0.862-4.517 2.426-5.909 4.457z"></path>
<path d="M38.124 18.245c1.438-2.651 3.93-4.696 6.964-5.715v-7.098s-13.245 4.58-12.965 11.205v11.203s0.59-0.205 1.519-0.589c0-0.358 0-0.719 0.042-1.082 0.274-3.076 1.871-5.926 4.44-7.924z"></path>
<path d="M36.864 22.407c0.078-0.847 0.242-1.626 0.485-2.37l-0.021 0.076c-1.599 1.725-2.568 3.866-2.77 6.122-0.019 0.213-0.030 0.426-0.035 0.645 0.752-0.331 1.628-0.744 2.548-1.229-0.158-0.688-0.249-1.478-0.249-2.289 0-0.336 0.016-0.669 0.046-0.998l-0.003 0.042zM37.391 22.447c-0.026 0.272-0.041 0.589-0.041 0.909 0 0.718 0.075 1.419 0.216 2.095l-0.012-0.066c3.619-1.983 7.685-5.046 7.528-8.748v-0.323c-2.585 0.265-5.004 1.3-6.885 2.946-0.44 1.020-0.712 2.094-0.807 3.188z"></path>
</symbol>
<symbol id="icon-Logo-11-1" viewBox="0 0 57 32">
<path d="M28.493 14.618c-0.236-0.315-0.349-0.686-0.323-1.061v-1.538c0-0.471 0.107-0.83 0.321-1.075s0.581-0.367 1.102-0.366c0.489 0 0.836 0.104 1.042 0.313 0.224 0.266 0.333 0.592 0.308 0.92v0.361h-0.875v-0.366c0-0.014 0.001-0.031 0.001-0.048 0-0.11-0.009-0.217-0.028-0.321l0.002 0.011c-0.013-0.081-0.057-0.156-0.125-0.213-0.090-0.061-0.203-0.091-0.317-0.083-0.12-0.008-0.239 0.024-0.333 0.088-0.076 0.063-0.127 0.145-0.145 0.235-0.022 0.105-0.035 0.226-0.035 0.349 0 0.011 0 0.022 0 0.033l-0-0.002v1.866c-0.014 0.18 0.025 0.36 0.112 0.524 0.044 0.055 0.104 0.099 0.175 0.127 0.051 0.020 0.111 0.032 0.173 0.032 0.019 0 0.037-0.001 0.055-0.003l-0.002 0c0.112 0.008 0.223-0.022 0.31-0.084 0.071-0.061 0.117-0.141 0.13-0.227 0.018-0.101 0.028-0.217 0.028-0.336 0-0.013-0-0.027-0-0.040l0 0.002v-0.379h0.875v0.346c0.025 0.342-0.082 0.682-0.303 0.967-0.201 0.228-0.544 0.343-1.047 0.343s-0.884-0.122-1.1-0.375zM32.137 14.633c-0.221-0.239-0.332-0.588-0.332-1.050v-1.617c0-0.457 0.11-0.802 0.332-1.037s0.591-0.351 1.109-0.35c0.515 0 0.882 0.117 1.103 0.35 0.221 0.235 0.333 0.58 0.333 1.037v1.617c0 0.457-0.112 0.807-0.337 1.048s-0.591 0.361-1.1 0.361c-0.509 0-0.886-0.122-1.109-0.36zM33.654 14.245c0.079-0.15 0.115-0.314 0.105-0.479v-1.98c0.010-0.161-0.025-0.322-0.103-0.469-0.044-0.057-0.106-0.101-0.179-0.129-0.051-0.020-0.109-0.031-0.171-0.031-0.021 0-0.042 0.001-0.062 0.004l0.002-0c-0.018-0.002-0.038-0.004-0.059-0.004-0.062 0-0.121 0.011-0.176 0.033l0.003-0.001c-0.073 0.028-0.135 0.072-0.18 0.129-0.080 0.146-0.116 0.308-0.105 0.469v1.99c-0.011 0.165 0.025 0.329 0.105 0.479 0.051 0.050 0.114 0.091 0.185 0.119s0.147 0.042 0.225 0.042c0.078 0 0.154-0.014 0.225-0.042 0.072-0.028 0.133-0.068 0.185-0.119l-0 0v-0.009zM35.735 10.626h0.942l0.708 2.984 0.725-2.984h0.917l0.092 4.308h-0.678l-0.072-2.994-0.699 2.994h-0.544l-0.725-3.005-0.067 3.005h-0.685l0.085-4.308zM40.176 10.626h1.468c0.846 0 1.268 0.408 1.268 1.223 0 0.781-0.445 1.171-1.335 1.17h-0.5v1.915h-0.906l0.005-4.308zM41.43 12.467c0.090 0.010 0.18 0.003 0.266-0.021 0.089-0.024 0.166-0.064 0.233-0.116l-0.001 0.001c0.104-0.146 0.15-0.316 0.13-0.486 0.001-0.014 0.001-0.031 0.001-0.048 0-0.122-0.016-0.24-0.047-0.352l0.002 0.009c-0.014-0.046-0.037-0.085-0.067-0.118l0 0c-0.032-0.035-0.070-0.065-0.112-0.086l-0.002-0.001c-0.105-0.044-0.227-0.070-0.356-0.070-0.017 0-0.034 0-0.051 0.001l0.002-0h-0.352v1.287h0.352zM44.218 10.626h0.973l0.998 4.308h-0.844l-0.197-0.993h-0.868l-0.203 0.993h-0.857l0.998-4.308zM45.050 13.441l-0.339-1.808-0.339 1.808h0.678zM46.996 10.626h0.634l1.214 2.457v-2.457h0.752v4.308h-0.603l-1.221-2.565v2.565h-0.777l0.002-4.308zM51.357 13.291l-1.009-2.659h0.85l0.616 1.708 0.578-1.708h0.832l-0.997 2.659v1.642h-0.87v-1.642zM29.892 16.817v0.225h-0.739v1.75h-0.31v-1.75h-0.743v-0.225h1.792zM32.209 18.793h-0.239c-0.002 0-0.004 0-0.006 0-0.023 0-0.044-0.007-0.061-0.019l0 0c-0.017-0.011-0.031-0.026-0.040-0.045l-0-0.001-0.214-0.469h-1.026l-0.214 0.469c-0.007 0.021-0.018 0.039-0.033 0.053l-0 0c-0.017 0.012-0.039 0.019-0.062 0.019-0.002 0-0.004-0-0.005-0h-0.239l0.906-1.976h0.315l0.917 1.968zM30.709 18.059h0.855l-0.362-0.804c-0.023-0.051-0.046-0.112-0.064-0.176l-0.003-0.010c-0.013 0.038-0.024 0.073-0.034 0.105l-0.033 0.083-0.359 0.802zM33.771 18.599c0.057 0.003 0.114 0.003 0.17 0 0.054-0.005 0.104-0.013 0.152-0.025l-0.007 0.001c0.052-0.011 0.096-0.023 0.138-0.038l-0.008 0.002c0.040-0.014 0.080-0.031 0.121-0.048v-0.444h-0.362c-0.001 0-0.003 0-0.004 0-0.008 0-0.016-0.001-0.023-0.004l0.001 0c-0.009-0.003-0.016-0.007-0.023-0.012l0 0c-0.006-0.004-0.010-0.010-0.014-0.016l-0-0c-0.003-0.005-0.004-0.011-0.004-0.018 0-0.001 0-0.001 0-0.002v0-0.152h0.703v0.757c-0.11 0.069-0.237 0.125-0.373 0.159l-0.009 0.002c-0.064 0.017-0.141 0.031-0.219 0.040l-0.007 0.001c-0.078 0.008-0.169 0.012-0.261 0.012-0.001 0-0.002 0-0.004 0h0c-0.004 0-0.008 0-0.012 0-0.159 0-0.312-0.027-0.454-0.076l0.010 0.003c-0.136-0.047-0.259-0.117-0.362-0.206-0.101-0.090-0.18-0.196-0.234-0.313s-0.083-0.253-0.083-0.397c0-0.004 0-0.009 0-0.013v0.001c-0-0.004-0-0.008-0-0.012 0-0.145 0.030-0.282 0.084-0.407l-0.003 0.007c0.052-0.117 0.132-0.224 0.234-0.313 0.103-0.089 0.227-0.159 0.362-0.205 0.14-0.047 0.301-0.074 0.468-0.074 0.006 0 0.013 0 0.019 0h-0.001c0 0 0.001 0 0.001 0 0.088 0 0.175 0.006 0.26 0.018l-0.010-0.001c0.082 0.012 0.154 0.029 0.224 0.053l-0.009-0.003c0.063 0.021 0.124 0.047 0.181 0.078 0.056 0.031 0.108 0.065 0.158 0.103l-0.087 0.122c-0.007 0.012-0.017 0.021-0.029 0.027l-0 0c-0.012 0.006-0.026 0.010-0.041 0.010h-0c-0.021-0-0.040-0.006-0.057-0.016l0.001 0c-0.037-0.017-0.066-0.033-0.094-0.050l0.005 0.003c-0.034-0.019-0.074-0.037-0.116-0.051l-0.006-0.002c-0.046-0.017-0.102-0.032-0.16-0.043l-0.007-0.001c-0.066-0.011-0.141-0.017-0.218-0.017-0.004 0-0.008 0-0.012 0h0.001c-0.003-0-0.007-0-0.011-0-0.121 0-0.237 0.020-0.346 0.057l0.008-0.002c-0.101 0.035-0.192 0.088-0.266 0.156-0.075 0.071-0.132 0.155-0.169 0.246-0.038 0.098-0.061 0.211-0.061 0.329s0.022 0.232 0.063 0.336l-0.002-0.006c0.040 0.093 0.101 0.178 0.181 0.249 0.074 0.068 0.164 0.121 0.265 0.156 0.115 0.034 0.237 0.047 0.359 0.039zM36.659 18.567h0.989v0.225h-1.292v-1.976h0.31l-0.007 1.75zM38.678 18.792h-0.31v-1.976h0.31v1.976zM39.83 16.826c0.018 0.009 0.034 0.021 0.047 0.036l0 0 1.324 1.489c-0.001-0.011-0.001-0.023-0.001-0.035s0-0.025 0.001-0.037l-0 0.002v-1.472h0.27v1.984h-0.156c-0.003 0-0.007 0-0.010 0-0.020 0-0.040-0.004-0.058-0.012l0.001 0c-0.019-0.010-0.035-0.023-0.049-0.037l-0-0-1.323-1.488v1.536h-0.259v-1.976h0.161c0.018 0 0.036 0.003 0.052 0.010l-0.001-0zM43.753 16.817v0.217h-1.098v0.652h0.89v0.21h-0.89v0.674h1.098v0.217h-1.417v-1.971h1.417zM11.286 4.616l13.757 3.372v11.818l-13.757-3.371v-11.819zM10.404 3.609v13.401l15.52 3.806v-13.399l-15.52-3.807z"></path>
<path d="M18.722 27.036l-15.522-3.809v-13.399l15.522 3.807v13.401z"></path>
<path d="M10.661 4.465l13.578 3.33-5.774 4.987-13.58-3.332 5.776-4.985zM10.404 3.609l-7.204 6.219 15.522 3.807 7.202-6.219-15.52-3.807zM19.595 26.282l6.329-5.465-6.329-1.553v7.018z"></path>
</symbol>
<symbol id="icon-person-1" viewBox="0 0 32 32">
<path d="M16.003 16.003c2.947 0 5.334-2.387 5.334-5.334s-2.387-5.334-5.334-5.334-5.334 2.387-5.334 5.334 2.387 5.334 5.334 5.334zM16.003 18.67c-3.561 0-10.668 1.787-10.668 5.334v1.334c0 0.733 0.6 1.334 1.334 1.334h18.67c0.733 0 1.334-0.6 1.334-1.334v-1.334c0-3.547-7.108-5.334-10.668-5.334z"></path>
</symbol>
<symbol id="icon-phone-1" viewBox="0 0 32 32">
<path d="M24.886 19.777l-3.268-0.373c-0.090-0.011-0.193-0.017-0.299-0.017-0.708 0-1.348 0.287-1.812 0.751l-2.368 2.368c-3.641-1.853-6.627-4.825-8.48-8.48l2.38-2.38c0.464-0.464 0.751-1.104 0.751-1.812 0-0.105-0.006-0.209-0.019-0.311l0.001 0.012-0.373-3.243c-0.154-1.288-1.241-2.278-2.558-2.278-0.001 0-0.002 0-0.003 0h-2.226c-1.454 0-2.664 1.21-2.573 2.664 0.682 10.989 9.47 19.765 20.446 20.447 1.454 0.090 2.664-1.119 2.664-2.574v-2.226c0.013-1.3-0.965-2.393-2.265-2.548z"></path>
</symbol>
<symbol id="icon-email-1" viewBox="0 0 32 32">
<path d="M26.671 5.334h-21.337c-1.467 0-2.654 1.2-2.654 2.667l-0.013 16.003c0 1.467 1.2 2.667 2.667 2.667h21.337c1.467 0 2.667-1.2 2.667-2.667v-16.003c0-1.467-1.2-2.667-2.667-2.667zM26.137 11.002l-9.428 5.894c-0.427 0.267-0.987 0.267-1.414 0l-9.428-5.894c-0.333-0.213-0.533-0.573-0.533-0.96 0-0.893 0.974-1.427 1.734-0.96l8.935 5.588 8.935-5.588c0.76-0.467 1.734 0.067 1.734 0.96 0 0.387-0.2 0.747-0.533 0.96z"></path>
</symbol>

<symbol id="icon-Vector-2-1" viewBox="0 0 34 32">
<path d="M30.351 3.551v24.898h-26.558v-24.898h26.558zM30.351-0.006h-26.558c-2.087 0-3.794 1.601-3.794 3.557v24.898c0 1.956 1.707 3.557 3.794 3.557h26.558c2.087 0 3.794-1.601 3.794-3.557v-24.898c0-1.956-1.707-3.557-3.794-3.557z"></path>
</symbol>
<symbol id="icon-Vector-1" viewBox="0 0 32 32">
<path stroke-linejoin="miter" stroke-linecap="butt" stroke-miterlimit="4" stroke-width="0.4923" d="M4.818 15.389l-0.169-0.162-2.544 2.41 0.187 0.179 8.777 8.373 18.833-17.966-2.528-2.411-16.305 15.54-6.251-5.963z"></path>
</symbol>
<symbol id="icon-icon-send-1" viewBox="0 0 32 32">
<path d="M32.011 0l-32.011 18.006 10.23 3.789 15.779-14.793-12.002 16.192 0.010 0.004-0.012-0.004v8.817l5.737-6.693 7.268 2.692 5.002-28.010z"></path>
</symbol>

<symbol id="icon-icon-check-1" viewBox="0 0 34 32">
<path fill="#2196f3" style="fill: var(--color1, #2196f3)" d="M4.268-0.006h25.609c2.357 0 4.268 1.911 4.268 4.268v23.475c0 2.357-1.911 4.268-4.268 4.268h-25.609c-2.357 0-4.268-1.911-4.268-4.268v-23.475c0-2.357 1.911-4.268 4.268-4.268z"></path>
<path fill="#fff" style="fill: var(--color2, #fff); stroke: var(--color2, #fff)" stroke="#fff" stroke-linejoin="miter" stroke-linecap="butt" stroke-miterlimit="4" stroke-width="0.4267" d="M8.445 16.537l-0.147-0.14-2.205 2.089 0.162 0.155 7.608 7.257 16.324-15.572-2.191-2.090-14.133 13.47-5.418-5.168z"></path>
</symbol>
<symbol id="icon-linkedin-1" viewBox="0 0 32 32">
      <path d="M31.992 32v-.001H32V20.263c0-5.741-1.236-10.164-7.948-10.164-3.227 0-5.392 1.771-6.276 3.449h-.093v-2.913h-6.364v21.364h6.627V21.42c0-2.785.528-5.479 3.977-5.479 3.399 0 3.449 3.179 3.449 5.657v10.401h6.62zM.528 10.636h6.635V32H.528V10.636zM3.843 0C1.722 0 0 1.721 0 3.843s1.721 3.879 3.843 3.879c2.121 0 3.843-1.757 3.843-3.879A3.846 3.846 0 0 0 3.843 0z" />
    </symbol>
    <symbol id="icon-facebook-1" viewBox="0 0 32 32">
      <path d="M21.329 5.313h2.921V.225C23.746.156 22.013 0 19.994 0c-4.212 0-7.097 2.649-7.097 7.519V12H8.249v5.688h4.648V32h5.699V17.689h4.46l.708-5.688h-5.169V8.082c.001-1.644.444-2.769 2.735-2.769z" />
    </symbol>
    <symbol id="icon-twitter-1" viewBox="0 0 32 32">
      <path d="M32 6.078c-1.19.522-2.458.868-3.78 1.036a6.523 6.523 0 0 0 2.886-3.626 13.11 13.11 0 0 1-4.16 1.588A6.574 6.574 0 0 0 22.154 3c-3.632 0-6.556 2.948-6.556 6.562 0 .52.044 1.02.152 1.496-5.454-.266-10.28-2.88-13.522-6.862a6.605 6.605 0 0 0-.898 3.316 6.57 6.57 0 0 0 2.914 5.452 6.479 6.479 0 0 1-2.964-.808v.072c0 3.188 2.274 5.836 5.256 6.446a6.548 6.548 0 0 1-1.72.216 5.8 5.8 0 0 1-1.242-.112c.85 2.598 3.262 4.508 6.13 4.57a13.182 13.182 0 0 1-8.134 2.798c-.538 0-1.054-.024-1.57-.09A18.469 18.469 0 0 0 10.064 29c12.072 0 18.672-10 18.672-18.668 0-.29-.01-.57-.024-.848A13.087 13.087 0 0 0 32 6.078z" />
    </symbol>
    <symbol id="icon-instagram-2" viewBox="0 0 32 32">
      <path d="M31.969 9.408c-.075-1.7-.35-2.869-.744-3.882a7.806 7.806 0 0 0-1.851-2.838A7.867 7.867 0 0 0 26.542.844C25.523.45 24.36.175 22.66.1 20.947.019 20.403 0 16.059 0s-4.888.019-6.595.094c-1.7.075-2.869.35-3.882.744a7.803 7.803 0 0 0-2.838 1.85A7.867 7.867 0 0 0 .9 5.52C.506 6.539.231 7.702.156 9.402c-.081 1.713-.1 2.257-.1 6.601s.019 4.888.094 6.595c.075 1.7.35 2.869.744 3.882a7.895 7.895 0 0 0 1.85 2.838 7.867 7.867 0 0 0 2.832 1.844c1.019.394 2.182.669 3.882.744 1.706.075 2.25.094 6.595.094s4.888-.019 6.595-.094c1.7-.075 2.869-.35 3.882-.744a8.184 8.184 0 0 0 4.682-4.682c.394-1.019.669-2.182.744-3.882.075-1.707.094-2.251.094-6.595s-.006-4.888-.081-6.595zm-2.882 13.065c-.069 1.563-.331 2.407-.55 2.969a5.31 5.31 0 0 1-3.038 3.038c-.563.219-1.413.481-2.969.55-1.688.075-2.194.094-6.464.094s-4.782-.019-6.464-.094c-1.563-.069-2.407-.331-2.969-.55a4.926 4.926 0 0 1-1.838-1.194 4.974 4.974 0 0 1-1.194-1.838c-.219-.563-.481-1.413-.55-2.969-.075-1.688-.094-2.194-.094-6.464s.019-4.782.094-6.464c.069-1.563.331-2.407.55-2.969a4.868 4.868 0 0 1 1.2-1.838A4.974 4.974 0 0 1 6.639 3.55c.563-.219 1.413-.481 2.969-.55 1.688-.075 2.194-.094 6.464-.094 4.276 0 4.782.019 6.464.094 1.563.069 2.407.331 2.969.55a4.914 4.914 0 0 1 1.838 1.194 4.974 4.974 0 0 1 1.194 1.838c.219.563.481 1.413.55 2.969.075 1.688.094 2.194.094 6.464s-.019 4.77-.094 6.458z"/>
      <path d="M16.059 7.783c-4.538 0-8.22 3.682-8.22 8.22s3.682 8.22 8.22 8.22c4.539 0 8.22-3.682 8.22-8.22s-3.682-8.22-8.22-8.22zm0 13.552a5.333 5.333 0 0 1 0-10.664 5.333 5.333 0 0 1 0 10.664zM26.524 7.458a1.919 1.919 0 1 1-3.838 0 1.919 1.919 0 0 1 3.838 0z" />
    </symbol>
    <symbol id="icon-astronaut-1" viewBox="0 0 32 32">
      <path d="M31.974 4.524a.534.534 0 0 0-.43-.363l-1.91-.278-.855-1.731c-.179-.365-.777-.365-.956 0l-.855 1.731-1.91.278a.535.535 0 0 0-.296.91l1.383 1.348-.326 1.903c-.034.2.048.402.212.522a.53.53 0 0 0 .562.04l1.709-.899 1.709.899a.536.536 0 0 0 .775-.563l-.326-1.903 1.383-1.348a.536.536 0 0 0 .135-.547zm-2.463 1.327a.534.534 0 0 0-.153.472l.191 1.114-1-.526a.533.533 0 0 0-.498 0l-1.001.526.191-1.114a.534.534 0 0 0-.153-.472l-.81-.789 1.119-.163a.532.532 0 0 0 .402-.292l.5-1.013.5 1.013a.535.535 0 0 0 .402.292l1.119.163-.809.789zM26.134 20.522h-1.067v1.067h1.067v-1.067zM26.134 22.656h-1.067v1.067h1.067v-1.067zM27.2 21.589h-1.067v1.067H27.2v-1.067zM25.067 21.589H24v1.067h1.067v-1.067zM22.4 26.389h-1.067v1.067H22.4v-1.067zM22.4 28.522h-1.067v1.067H22.4v-1.067zM23.467 27.456H22.4v1.067h1.067v-1.067zM21.333 27.456h-1.067v1.067h1.067v-1.067zM16 24.256h-1.067v1.067H16v-1.067zM16 26.389h-1.067v1.067H16v-1.067zM17.067 25.322H16v1.067h1.067v-1.067zM14.933 25.322h-1.067v1.067h1.067v-1.067zM5.867 6.122H4.8v1.067h1.067V6.122zM5.867 8.255H4.8v1.067h1.067V8.255z" />
      <path d="M6.933 7.189H5.866v1.067h1.067V7.189zM4.8 7.189H3.733v1.067H4.8V7.189z" />
      <path d="M24.715 14.159a1.775 1.775 0 0 0-1.188-.705 1.778 1.778 0 0 0-1.34.352l-1.252.96-1.898 1.417-1.358-.541c2.421-1.086 4.114-3.508 4.114-6.32 0-3.823-3.123-6.933-6.961-6.933s-6.961 3.11-6.961 6.933a6.86 6.86 0 0 0 1.12 3.758l-2.764-.024h-.005c-.009 0-.015.004-.023.005a.515.515 0 0 0-.155.031l-.038.013c-.006.003-.013.003-.019.006l-3.233 1.596-.001.001-1.893.911a.397.397 0 0 0-.063.035 1.779 1.779 0 0 0-.598 2.295c.22.429.595.745 1.056.889a1.776 1.776 0 0 0 1.378-.128l1.388-.738 2.264-1.169 1.357-.008L2.2 22.211l-.002.001-1.339 1.333c-.316.315-.49.732-.49 1.178s.174.863.49 1.179c.325.323.752.485 1.179.485s.854-.162 1.18-.485l1.314-1.309 1.741-1.3.901.897-1.762 1.754-.002.001-1.339 1.333c-.316.315-.49.732-.49 1.178s.174.863.49 1.179c.325.323.753.485 1.18.485s.855-.162 1.18-.485l3.482-3.467.001-.002 1.01-1-.004-.004c.006-.006.015-.009.022-.015l5.166-5.658 3.471.494a.52.52 0 0 0 .262-.033c.018-.006.033-.015.05-.023.019-.01.039-.015.058-.027l3.213-2.133c.012-.008.018-.021.029-.029.013-.01.029-.014.041-.026l1.271-1.191c.662-.62.753-1.635.212-2.362zM2.13 17.77a.714.714 0 0 1-.558.052.717.717 0 0 1-.213-1.26l1.314-.632.449 1.312-.992.528zm3.498-1.828-1.548.8-.439-1.283 2.027-1.001-.04 1.484zm15.099-6.62a5.79 5.79 0 0 1-.599 2.559l-4.181-1.899a1.863 1.863 0 0 0-.788-1.388l1.464-4.86c2.378.756 4.105 2.974 4.105 5.588zm-11.789 0c0-3.235 2.644-5.867 5.894-5.867.253 0 .5.021.745.052l-1.432 4.754c-.019-.001-.037-.006-.057-.006-1.033 0-1.873.837-1.873 1.867s.84 1.867 1.873 1.867c.694 0 1.294-.383 1.618-.945l3.862 1.755a5.894 5.894 0 0 1-4.737 2.39c-3.25 0-5.894-2.632-5.894-5.867zm5.956.8c0 .441-.362.8-.806.8s-.806-.359-.806-.8c0-.441.362-.8.806-.8s.806.359.806.8zM2.465 25.146a.608.608 0 0 1-.854.001.592.592 0 0 1 0-.844l.962-.958.851.848-.959.955zm3.214 3.734a.608.608 0 0 1-.855.001.592.592 0 0 1 0-.844l.963-.959.852.848-.96.955zm3.481-3.469-.002.001-1.765 1.76-.852-.848 1.763-1.755.002-.001c.04-.04.065-.088.09-.135.007-.014.02-.026.026-.04.017-.041.019-.085.026-.129.003-.025.014-.047.014-.073 0-.036-.013-.07-.02-.106-.006-.032-.006-.065-.019-.095a.55.55 0 0 0-.091-.138c-.01-.012-.014-.027-.025-.038h-.001l-.001-.002-1.607-1.6c-.017-.017-.039-.024-.058-.038a.507.507 0 0 0-.087-.058.515.515 0 0 0-.093-.033.507.507 0 0 0-.103-.02.5.5 0 0 0-.095.005.53.53 0 0 0-.104.02.477.477 0 0 0-.094.045c-.02.011-.042.015-.061.029L4.23 23.486l-.901-.897 2.399-2.386 4.361 4.289-.928.919zm6.819-7.017c-.015-.002-.03.004-.045.003a.556.556 0 0 0-.3.075.492.492 0 0 0-.083.061c-.013.011-.028.017-.04.029l-4.698 5.146-4.328-4.257 2.833-2.818a.534.534 0 0 0-.379-.911v-.001l-2.219.013.028-1.607 3.104.027a6.947 6.947 0 0 0 4.981 2.101c.437 0 .864-.045 1.279-.123.04.032.079.065.13.085l2.41.96.331 1.644-3.003-.427zm4.041.178-.313-1.558 1.446-1.08.947 1.257-2.08 1.381zm3.754-2.831-.838.785-.931-1.236.831-.637a.735.735 0 0 1 .543-.143.718.718 0 0 1 .48.284.713.713 0 0 1-.085.947z" />
      <path d="m13.602 18.544-2.143-2.133a.534.534 0 0 0-.753 0l-2.142 2.133a.537.537 0 0 0 0 .756l2.142 2.133a.536.536 0 0 0 .753 0l2.143-2.133a.535.535 0 0 0 0-.756zm-2.519 1.759-1.387-1.381 1.387-1.381 1.387 1.381-1.387 1.381zM17.164 5.071l-.258 1.036c.071.018 1.738.452 1.738 2.149h1.067c0-2.017-1.666-2.965-2.547-3.185zM19.711 9.322h-1.067v1.067h1.067V9.322z" />
    </symbol>
    <symbol id="icon-diagram-1" viewBox="0 0 32 32">
      <path  d="M14.926 14.965h1.066v4.798h-1.066v-4.797zM19.19 17.097h1.066v2.665H19.19v-2.665zM10.661 18.696h1.066v1.066h-1.066v-1.066zM7.463 18.163h1.066v1.599H7.463v-1.599z" />
      <path  d="M1.599 28.291h25.587a1.6 1.6 0 0 0 1.599-1.599V24.56a1.6 1.6 0 0 0-1.599-1.599h-.533V9.668L29.681 6.8a1.608 1.608 0 1 0-.746-.763L26.654 8.2V6.97a1.6 1.6 0 0 0-1.599-1.599H3.733A1.6 1.6 0 0 0 2.134 6.97v15.992h-.533a1.6 1.6 0 0 0-1.599 1.599v2.132a1.6 1.6 0 0 0 1.599 1.599zM30.384 4.837a.533.533 0 1 1 0 1.067.533.533 0 0 1 0-1.067zM3.198 6.969c0-.294.239-.533.533-.533h21.322c.294 0 .533.239.533.533v2.239l-1.066 1.013V8.035a.533.533 0 0 0-.533-.533H4.797a.533.533 0 0 0-.533.533v13.326c0 .294.239.533.533.533h19.19a.533.533 0 0 0 .533-.533v-9.674l1.066-1.01v12.284H3.198V6.969zm4.798 6.93a1.598 1.598 0 1 0 1.107 2.749l1.853.93a.532.532 0 0 0 .636-.123l3.939-4.431 3.872 2.901a.533.533 0 0 0 .686-.039l3.365-3.188v8.131H5.33V8.569h18.124v2.66l-3.771 3.572-3.904-2.927a.533.533 0 0 0-.718.072l-3.993 4.493-1.493-.746c.011-.064.018-.129.02-.193a1.6 1.6 0 0 0-1.599-1.599zm.533 1.599a.533.533 0 1 1-1.067 0 .533.533 0 0 1 1.067 0zm3.198 8.529h5.331v.533a.533.533 0 0 1-.533.533h-4.264a.533.533 0 0 1-.533-.533v-.533zm-10.661.533c0-.294.239-.533.533-.533h9.062v.533a1.6 1.6 0 0 0 1.599 1.599h4.264a1.6 1.6 0 0 0 1.599-1.599v-.533h9.062c.294 0 .533.239.533.533v2.132a.533.533 0 0 1-.533.533H1.598a.533.533 0 0 1-.533-.533V24.56z" />
    </symbol>
    <symbol id="icon-clock-1" viewBox="0 0 32 32">
      <path  d="M31.297 15.301C31.295 6.849 24.442-.002 15.989 0S.686 6.855.688 15.308a15.304 15.304 0 0 0 10.649 14.576.662.662 0 0 0 .529-.065.637.637 0 0 0 .283-.356l3.865-12.25a1.912 1.912 0 1 0-.84-3.635l-5.106-5.107a.637.637 0 0 0-.902.902l5.103 5.109a1.876 1.876 0 0 0 .536 2.309l-3.683 11.673C3.844 25.783.118 17.71 2.799 10.432S13.553-.572 20.831 2.109s11.004 10.754 8.323 18.032a14.042 14.042 0 0 1-7.462 7.973l-.398-1.874a.638.638 0 0 0-1.048-.344l-3.837 3.426a.637.637 0 0 0 .231 1.084l4.899 1.563a.638.638 0 0 0 .819-.74l-.391-1.839a15.255 15.255 0 0 0 9.329-14.089zm-15.305-.637a.638.638 0 1 1 0 1.277.638.638 0 0 1 0-1.277zm2.101 14.864 2.184-1.948.603 2.84-2.787-.892z" />
      <path  d="M15.354 3.185V4.46a.638.638 0 1 0 1.276 0V3.185a.638.638 0 0 0-1.276 0zM3.876 14.664a.638.638 0 0 0 0 1.276h1.275a.638.638 0 1 0 0-1.276H3.876zM28.108 15.939a.638.638 0 1 0 0-1.276h-1.275a.638.638 0 0 0 0 1.276h1.275z" />
    </symbol>
    <symbol id="icon-antenna-1" viewBox="0 0 32 32">
      <path d="m30.773 22.098-8.443-8.505.937-4.615c.242.094.499.144.758.146h.006a2.159 2.159 0 1 0-2.008-1.435l-4.96.605L8.972.161a.534.534 0 0 0-.377-.16.532.532 0 0 0-.373.155L6.709 1.66a.534.534 0 0 0 0 .754l.814.826a14.943 14.943 0 0 0 2.519 17.663.513.513 0 0 0 .146.098c-.034.18-.051.364-.052.547v6.187h-6.4a2.67 2.67 0 0 0-2.667 2.667v1.067c0 .295.239.533.533.533h24.533a.533.533 0 0 0 .533-.533v-1.067a2.67 2.67 0 0 0-2.667-2.667h-6.4v-2.742a15.09 15.09 0 0 0 3.049.32 14.854 14.854 0 0 0 7.04-1.783l.818.823a.534.534 0 0 0 .377.16.532.532 0 0 0 .373-.155l1.513-1.504a.534.534 0 0 0 0-.754zM23.28 6.233a1.066 1.066 0 1 1 .752 1.822h-.003a1.067 1.067 0 0 1-.747-1.823h-.002zm-1.256 3.505-.598 2.946-1.175-1.182 1.774-1.763zm-.605-.902-1.92 1.909-1.485-1.493 3.405-.415zM24.004 28.8a1.6 1.6 0 0 1 1.6 1.6v.533H2.137V30.4a1.6 1.6 0 0 1 1.6-1.6h20.267zm-7.467-2.133v1.067h-5.333v-1.067h5.333zM11.204 25.6v-4.053c0-1.294 1.196-2.347 2.667-2.347s2.667 1.053 2.667 2.347V25.6h-5.333zm6.4-1.696v-2.357c0-1.882-1.675-3.413-3.733-3.413a3.8 3.8 0 0 0-3.281 1.786A13.87 13.87 0 0 1 8.311 4.033l18.602 18.708a13.818 13.818 0 0 1-9.309 1.163zm11.289-.684L7.836 2.039l.755-.752 7.935 7.98c.004 0 .006.007.01.01l13.115 13.191-.757.752z" />
      <path d="M13.876 20.267h-.005a1.6 1.6 0 1 0-.004 3.2h.005a1.6 1.6 0 1 0 .004-3.2zm.373 1.978a.534.534 0 0 1-.752-.756.534.534 0 0 1 .373-.155.532.532 0 0 1 .373.911h.005z" />
    </symbol>
    <symbol id="icon-envelope" viewBox="0 0 32 32">
      <path d="M29 4H3C1.346 4 0 5.346 0 7v18c0 1.654 1.346 3 3 3h26c1.654 0 3-1.346 3-3V7c0-1.654-1.346-3-3-3zm0 2c.136 0 .265.028.383.077L16 17.676 2.617 6.077A.996.996 0 0 1 3 6h26zm0 20H3a1 1 0 0 1-1-1V8.19l13.345 11.565a.998.998 0 0 0 1.31 0L30 8.19V25a1 1 0 0 1-1 1z" />
    </symbol>
    <symbol id="icon-smartphone" viewBox="0 0 32 32">
      <path d="M23 0H9C7.346 0 6 1.346 6 3v26c0 1.654 1.346 3 3 3h14c1.654 0 3-1.346 3-3V3c0-1.654-1.346-3-3-3zM9 2h14a1 1 0 0 1 1 1v21H8V3a1 1 0 0 1 1-1zm14 28H9a1 1 0 0 1-1-1v-3h16v3a1 1 0 0 1-1 1z" />
      <path d="M10.707 27.478c.391.365.391.956 0 1.321s-1.024.365-1.414 0c-.391-.365-.391-.956 0-1.321s1.024-.365 1.414 0z" />
    </symbol>
    <symbol id="icon-close-black-18dp-2-1-1" viewBox="0 0 32 32">
<path d="M26.671 7.304l-1.97-1.97-7.809 7.809-7.809-7.809-1.97 1.97 7.809 7.809-7.809 7.809 1.97 1.97 7.809-7.809 7.809 7.809 1.97-1.97-7.809-7.809 7.809-7.809z"></path>
</symbol>
  </defs>
</svg>
